solid ascii_model
  facet normal -1.0 0.0 0.0
    outer loop
      vertex -20.0 -25.0 45.0
      vertex -20.0 25.0 45.0
      vertex -20.0 25.0 -2.7755575615628914e-15
    endloop
  endfacet
  facet normal -1.0 0.0 0.0
    outer loop
      vertex -20.0 -25.0 45.0
      vertex -20.0 25.0 -2.7755575615628914e-15
      vertex -20.0 -25.0 -1.9721522630525295e-31
    endloop
  endfacet
  facet normal 0.0 -1.0 0.0
    outer loop
      vertex 20.0 -25.0 -1.9721522630525295e-31
      vertex 20.0 -25.0 45.0
      vertex -20.0 -25.0 45.0
    endloop
  endfacet
  facet normal 0.0 -1.0 0.0
    outer loop
      vertex 20.0 -25.0 -1.9721522630525295e-31
      vertex -20.0 -25.0 45.0
      vertex -20.0 -25.0 -1.9721522630525295e-31
    endloop
  endfacet
  facet normal 0.0 0.0 -1.0
    outer loop
      vertex -20.0 25.0 -2.7755575615628914e-15
      vertex -18.799999237060547 23.799999237060547 -2.7089441377337346e-15
      vertex -18.799999237060547 -23.799999237060547 -6.661338412448735e-17
    endloop
  endfacet
  facet normal 0.0 0.0 -1.0
    outer loop
      vertex -20.0 25.0 -2.7755575615628914e-15
      vertex -18.799999237060547 -23.799999237060547 -6.661338412448735e-17
      vertex -20.0 -25.0 -1.9721522630525295e-31
    endloop
  endfacet
  facet normal 0.0 0.0 -1.0
    outer loop
      vertex 18.799999237060547 23.799999237060547 -2.7089441377337346e-15
      vertex 20.0 25.0 -2.7755575615628914e-15
      vertex 18.799999237060547 -23.799999237060547 -6.661338412448735e-17
    endloop
  endfacet
  facet normal 0.0 0.0 -1.0
    outer loop
      vertex 20.0 -25.0 -1.9721522630525295e-31
      vertex 18.799999237060547 -23.799999237060547 -6.661338412448735e-17
      vertex 20.0 25.0 -2.7755575615628914e-15
    endloop
  endfacet
  facet normal 1.0 0.0 0.0
    outer loop
      vertex 20.0 25.0 45.0
      vertex 20.0 -25.0 45.0
      vertex 20.0 -25.0 -1.9721522630525295e-31
    endloop
  endfacet
  facet normal 1.0 0.0 0.0
    outer loop
      vertex 20.0 25.0 45.0
      vertex 20.0 -25.0 -1.9721522630525295e-31
      vertex 20.0 25.0 -2.7755575615628914e-15
    endloop
  endfacet
  facet normal 0.0 1.0 0.0
    outer loop
      vertex -20.0 25.0 45.0
      vertex 20.0 25.0 -2.7755575615628914e-15
      vertex -20.0 25.0 -2.7755575615628914e-15
    endloop
  endfacet
  facet normal 0.0 0.0 -1.0
    outer loop
      vertex -20.0 -25.0 -1.9721522630525295e-31
      vertex -18.799999237060547 -23.799999237060547 -6.661338412448735e-17
      vertex 18.799999237060547 -23.799999237060547 -6.661338412448735e-17
    endloop
  endfacet
  facet normal 0.0 0.0 -1.0
    outer loop
      vertex -20.0 -25.0 -1.9721522630525295e-31
      vertex 18.799999237060547 -23.799999237060547 -6.661338412448735e-17
      vertex 20.0 -25.0 -1.9721522630525295e-31
    endloop
  endfacet
  facet normal 0.0 1.0 0.0
    outer loop
      vertex 20.0 25.0 -2.7755575615628914e-15
      vertex -20.0 25.0 45.0
      vertex 20.0 25.0 45.0
    endloop
  endfacet
  facet normal 0.0 0.0 -1.0
    outer loop
      vertex 18.799999237060547 23.799999237060547 -2.7089441377337346e-15
      vertex -18.799999237060547 23.799999237060547 -2.7089441377337346e-15
      vertex -20.0 25.0 -2.7755575615628914e-15
    endloop
  endfacet
  facet normal 0.0 0.0 -1.0
    outer loop
      vertex 18.799999237060547 23.799999237060547 -2.7089441377337346e-15
      vertex -20.0 25.0 -2.7755575615628914e-15
      vertex 20.0 25.0 -2.7755575615628914e-15
    endloop
  endfacet
  facet normal 0.0 0.0 1.0
    outer loop
      vertex 20.0 25.0 45.0
      vertex -20.0 25.0 45.0
      vertex -20.0 -25.0 45.0
    endloop
  endfacet
  facet normal 0.0 0.0 1.0
    outer loop
      vertex 20.0 25.0 45.0
      vertex -20.0 -25.0 45.0
      vertex 20.0 -25.0 45.0
    endloop
  endfacet
  facet normal 0.0 -1.0 0.0
    outer loop
      vertex 18.799999237060547 23.799999237060547 -2.7089441377337346e-15
      vertex 18.799999237060547 23.799999237060547 44.099998474121094
      vertex -18.799999237060547 23.799999237060547 44.099998474121094
    endloop
  endfacet
  facet normal 0.0 -1.0 0.0
    outer loop
      vertex 18.799999237060547 23.799999237060547 -2.7089441377337346e-15
      vertex -18.799999237060547 23.799999237060547 44.099998474121094
      vertex -18.799999237060547 23.799999237060547 -2.7089441377337346e-15
    endloop
  endfacet
  facet normal 1.0 0.0 0.0
    outer loop
      vertex -18.799999237060547 -23.799999237060547 44.099998474121094
      vertex -18.799999237060547 -23.799999237060547 -6.661338412448735e-17
      vertex -18.799999237060547 23.799999237060547 -2.7089441377337346e-15
    endloop
  endfacet
  facet normal 1.0 0.0 0.0
    outer loop
      vertex -18.799999237060547 -23.799999237060547 44.099998474121094
      vertex -18.799999237060547 23.799999237060547 -2.7089441377337346e-15
      vertex -18.799999237060547 23.799999237060547 44.099998474121094
    endloop
  endfacet
  facet normal 0.0 0.0 -1.0
    outer loop
      vertex -18.799999237060547 23.799999237060547 44.099998474121094
      vertex 18.799999237060547 23.799999237060547 44.099998474121094
      vertex 18.799999237060547 -23.799999237060547 44.099998474121094
    endloop
  endfacet
  facet normal 0.0 0.0 -1.0
    outer loop
      vertex -18.799999237060547 23.799999237060547 44.099998474121094
      vertex 18.799999237060547 -23.799999237060547 44.099998474121094
      vertex -18.799999237060547 -23.799999237060547 44.099998474121094
    endloop
  endfacet
  facet normal -1.0 0.0 0.0
    outer loop
      vertex 18.799999237060547 23.799999237060547 44.099998474121094
      vertex 18.799999237060547 23.799999237060547 -2.7089441377337346e-15
      vertex 18.799999237060547 -23.799999237060547 -6.661338412448735e-17
    endloop
  endfacet
  facet normal -1.0 0.0 0.0
    outer loop
      vertex 18.799999237060547 23.799999237060547 44.099998474121094
      vertex 18.799999237060547 -23.799999237060547 -6.661338412448735e-17
      vertex 18.799999237060547 -23.799999237060547 44.099998474121094
    endloop
  endfacet
  facet normal 0.0 1.0 0.0
    outer loop
      vertex 18.799999237060547 -23.799999237060547 44.099998474121094
      vertex 18.799999237060547 -23.799999237060547 -6.661338412448735e-17
      vertex -18.799999237060547 -23.799999237060547 -6.661338412448735e-17
    endloop
  endfacet
  facet normal 0.0 1.0 0.0
    outer loop
      vertex 18.799999237060547 -23.799999237060547 44.099998474121094
      vertex -18.799999237060547 -23.799999237060547 -6.661338412448735e-17
      vertex -18.799999237060547 -23.799999237060547 44.099998474121094
    endloop
  endfacet
endsolid ascii_model
