solid ascii_model
  facet normal 0.0 0.0 -1.0
    outer loop
      vertex 40.0 45.0 0.0
      vertex 40.0 -45.0 0.0
      vertex -40.0 -45.0 0.0
    endloop
  endfacet
  facet normal 0.0 0.0 -1.0
    outer loop
      vertex 40.0 45.0 0.0
      vertex -40.0 -45.0 0.0
      vertex -40.0 45.0 0.0
    endloop
  endfacet
  facet normal 0.0 0.0 1.0
    outer loop
      vertex -40.0 45.0 4.0
      vertex -40.0 -45.0 4.0
      vertex 40.0 -45.0 4.0
    endloop
  endfacet
  facet normal 0.0 0.0 1.0
    outer loop
      vertex -40.0 45.0 4.0
      vertex 40.0 -45.0 4.0
      vertex 40.0 45.0 4.0
    endloop
  endfacet
  facet normal 0.0 -1.0 0.0
    outer loop
      vertex -40.0 -45.0 4.0
      vertex -40.0 -45.0 0.0
      vertex 40.0 -45.0 0.0
    endloop
  endfacet
  facet normal 0.0 -1.0 0.0
    outer loop
      vertex -40.0 -45.0 4.0
      vertex 40.0 -45.0 0.0
      vertex 40.0 -45.0 4.0
    endloop
  endfacet
  facet normal 0.0 1.0 0.0
    outer loop
      vertex 40.0 45.0 4.0
      vertex 40.0 45.0 0.0
      vertex -40.0 45.0 0.0
    endloop
  endfacet
  facet normal 0.0 1.0 0.0
    outer loop
      vertex 40.0 45.0 4.0
      vertex -40.0 45.0 0.0
      vertex -40.0 45.0 4.0
    endloop
  endfacet
  facet normal 1.0 0.0 0.0
    outer loop
      vertex 40.0 45.0 4.0
      vertex 40.0 -45.0 4.0
      vertex 40.0 -45.0 0.0
    endloop
  endfacet
  facet normal 1.0 0.0 0.0
    outer loop
      vertex 40.0 45.0 4.0
      vertex 40.0 -45.0 0.0
      vertex 40.0 45.0 0.0
    endloop
  endfacet
  facet normal -1.0 0.0 0.0
    outer loop
      vertex -40.0 45.0 0.0
      vertex -40.0 -45.0 0.0
      vertex -40.0 -45.0 4.0
    endloop
  endfacet
  facet normal -1.0 0.0 0.0
    outer loop
      vertex -40.0 45.0 0.0
      vertex -40.0 -45.0 4.0
      vertex -40.0 45.0 4.0
    endloop
  endfacet
  facet normal -1.0 0.0 0.0
    outer loop
      vertex -35.0 -40.0 70.0
      vertex -35.0 40.0 70.0
      vertex -35.0 40.0 0.0
    endloop
  endfacet
  facet normal -1.0 0.0 0.0
    outer loop
      vertex -35.0 -40.0 70.0
      vertex -35.0 40.0 0.0
      vertex -35.0 -40.0 0.0
    endloop
  endfacet
  facet normal 0.0 -1.0 0.0
    outer loop
      vertex 35.0 -40.0 0.0
      vertex 35.0 -40.0 70.0
      vertex -35.0 -40.0 70.0
    endloop
  endfacet
  facet normal 0.0 -1.0 0.0
    outer loop
      vertex 35.0 -40.0 0.0
      vertex -35.0 -40.0 70.0
      vertex -35.0 -40.0 0.0
    endloop
  endfacet
  facet normal 0.0 0.0 -1.0
    outer loop
      vertex 35.0 -40.0 0.0
      vertex 32.900001525878906 -38.08000183105469 0.0
      vertex 32.900001525878906 38.08000183105469 0.0
    endloop
  endfacet
  facet normal 0.0 0.0 -1.0
    outer loop
      vertex 35.0 -40.0 0.0
      vertex -32.900001525878906 -38.08000183105469 0.0
      vertex 32.900001525878906 -38.08000183105469 0.0
    endloop
  endfacet
  facet normal 0.0 0.0 -1.0
    outer loop
      vertex -32.900001525878906 38.08000183105469 0.0
      vertex 35.0 40.0 0.0
      vertex 32.900001525878906 38.08000183105469 0.0
    endloop
  endfacet
  facet normal 0.0 0.0 -1.0
    outer loop
      vertex 35.0 -40.0 0.0
      vertex 32.900001525878906 38.08000183105469 0.0
      vertex 35.0 40.0 0.0
    endloop
  endfacet
  facet normal 0.0 0.0 -1.0
    outer loop
      vertex -35.0 40.0 0.0
      vertex 35.0 40.0 0.0
      vertex -32.900001525878906 38.08000183105469 0.0
    endloop
  endfacet
  facet normal 0.0 0.0 -1.0
    outer loop
      vertex -35.0 40.0 0.0
      vertex -32.900001525878906 38.08000183105469 0.0
      vertex -32.900001525878906 -38.08000183105469 0.0
    endloop
  endfacet
  facet normal 0.0 0.0 -1.0
    outer loop
      vertex 35.0 -40.0 0.0
      vertex -35.0 -40.0 0.0
      vertex -32.900001525878906 -38.08000183105469 0.0
    endloop
  endfacet
  facet normal 0.0 0.0 -1.0
    outer loop
      vertex -35.0 40.0 0.0
      vertex -32.900001525878906 -38.08000183105469 0.0
      vertex -35.0 -40.0 0.0
    endloop
  endfacet
  facet normal 1.0 0.0 0.0
    outer loop
      vertex 35.0 -40.0 0.0
      vertex 35.0 40.0 0.0
      vertex 35.0 -40.0 70.0
    endloop
  endfacet
  facet normal 1.0 0.0 0.0
    outer loop
      vertex 35.0 40.0 70.0
      vertex 35.0 -40.0 70.0
      vertex 35.0 40.0 0.0
    endloop
  endfacet
  facet normal 0.0 1.0 0.0
    outer loop
      vertex 35.0 40.0 70.0
      vertex 35.0 40.0 0.0
      vertex -35.0 40.0 0.0
    endloop
  endfacet
  facet normal 0.0 1.0 0.0
    outer loop
      vertex 35.0 40.0 70.0
      vertex -35.0 40.0 0.0
      vertex -35.0 40.0 70.0
    endloop
  endfacet
  facet normal 0.0 -1.0 0.0
    outer loop
      vertex -32.900001525878906 38.08000183105469 0.0
      vertex 32.900001525878906 38.08000183105469 0.0
      vertex 32.900001525878906 38.08000183105469 68.5999984741211
    endloop
  endfacet
  facet normal 0.0 -1.0 0.0
    outer loop
      vertex -32.900001525878906 38.08000183105469 0.0
      vertex 32.900001525878906 38.08000183105469 68.5999984741211
      vertex -32.900001525878906 38.08000183105469 68.5999984741211
    endloop
  endfacet
  facet normal 0.0 0.0 1.0
    outer loop
      vertex 35.0 -40.0 70.0
      vertex 35.0 40.0 70.0
      vertex -35.0 -40.0 70.0
    endloop
  endfacet
  facet normal 0.0 0.0 1.0
    outer loop
      vertex -35.0 40.0 70.0
      vertex -35.0 -40.0 70.0
      vertex 35.0 40.0 70.0
    endloop
  endfacet
  facet normal 1.0 0.0 0.0
    outer loop
      vertex -32.900001525878906 38.08000183105469 68.5999984741211
      vertex -32.900001525878906 -38.08000183105469 68.5999984741211
      vertex -32.900001525878906 -38.08000183105469 0.0
    endloop
  endfacet
  facet normal 1.0 0.0 0.0
    outer loop
      vertex -32.900001525878906 38.08000183105469 68.5999984741211
      vertex -32.900001525878906 -38.08000183105469 0.0
      vertex -32.900001525878906 38.08000183105469 0.0
    endloop
  endfacet
  facet normal 0.0 0.0 -1.0
    outer loop
      vertex 32.900001525878906 -38.08000183105469 68.5999984741211
      vertex -32.900001525878906 -38.08000183105469 68.5999984741211
      vertex -32.900001525878906 38.08000183105469 68.5999984741211
    endloop
  endfacet
  facet normal 0.0 0.0 -1.0
    outer loop
      vertex 32.900001525878906 -38.08000183105469 68.5999984741211
      vertex -32.900001525878906 38.08000183105469 68.5999984741211
      vertex 32.900001525878906 38.08000183105469 68.5999984741211
    endloop
  endfacet
  facet normal -1.0 0.0 0.0
    outer loop
      vertex 32.900001525878906 38.08000183105469 0.0
      vertex 32.900001525878906 -38.08000183105469 0.0
      vertex 32.900001525878906 -38.08000183105469 68.5999984741211
    endloop
  endfacet
  facet normal -1.0 0.0 0.0
    outer loop
      vertex 32.900001525878906 38.08000183105469 0.0
      vertex 32.900001525878906 -38.08000183105469 68.5999984741211
      vertex 32.900001525878906 38.08000183105469 68.5999984741211
    endloop
  endfacet
  facet normal 0.0 1.0 0.0
    outer loop
      vertex -32.900001525878906 -38.08000183105469 68.5999984741211
      vertex 32.900001525878906 -38.08000183105469 68.5999984741211
      vertex 32.900001525878906 -38.08000183105469 0.0
    endloop
  endfacet
  facet normal 0.0 1.0 0.0
    outer loop
      vertex -32.900001525878906 -38.08000183105469 68.5999984741211
      vertex 32.900001525878906 -38.08000183105469 0.0
      vertex -32.900001525878906 -38.08000183105469 0.0
    endloop
  endfacet
endsolid ascii_model
